<?xml version="1.0" standalone="no"?><!DOCTYPE svg PUBLIC "-//W3C//DTD SVG 1.1//EN" "http://www.w3.org/Graphics/SVG/1.1/DTD/svg11.dtd"><svg t="1630224346586" class="icon" viewBox="0 0 1024 1024" version="1.1" xmlns="http://www.w3.org/2000/svg" p-id="12922" xmlns:xlink="http://www.w3.org/1999/xlink" width="128" height="128"><defs><style type="text/css"></style></defs><path d="M511.294578 147.911111c133.461333 0 241.664 108.202667 241.664 241.664 0 59.1872-38.775467 136.578844-100.613689 217.827556l-6.894933 8.954311-5.848178 7.441066c-51.768889 65.251556-104.96 116.098844-128.3072 116.098845-24.655644 0-82.6368-56.775111-137.068089-127.305956l-3.982222-5.188266C308.417422 526.153956 269.653333 448.762311 269.653333 389.575111c0-133.461333 108.202667-241.664 241.664-241.664z m0 544.199111l1.4336-1.046755 1.547378-1.149156c6.940444-5.290667 15.951644-13.266489 26.112-23.210667 22.436978-21.970489 48.196267-51.131733 71.953066-81.92 58.390756-75.6736 95.106844-147.797333 95.106845-195.208533 0-108.3392-87.813689-196.152889-196.152889-196.152889-108.316444 0-196.152889 87.813689-196.152889 196.152889 0 47.422578 36.727467 119.534933 95.118222 195.208533 23.745422 30.788267 49.516089 59.949511 71.953067 81.92 10.160356 9.944178 19.160178 17.92 26.112 23.210667 1.058133 0.807822 2.048 1.536 2.9696 2.184533z" fill="#74c9f5" p-id="12923"></path><path d="M511.294578 301.715911a88.428089 88.428089 0 1 1 0 176.856178 88.428089 88.428089 0 0 1 0-176.856178z m0 45.511111a42.916978 42.916978 0 1 0 0 85.833956 42.916978 42.916978 0 0 0 0-85.833956zM809.722311 791.2448c-14.802489 7.145244-37.467022 13.983289-66.207289 19.842844C682.928356 823.443911 600.314311 830.577778 512 830.577778c-88.314311 0-170.928356-7.133867-231.515022-19.490134-28.740267-5.859556-51.4048-12.6976-66.218667-19.842844a68.653511 68.653511 0 0 1-10.399289-6.007467c2.525867-1.8432 6.007467-3.8912 10.410667-6.007466 14.802489-7.145244 37.467022-13.994667 66.207289-19.854223a765.565156 765.565156 0 0 1 49.106489-8.226133 22.755556 22.755556 0 0 0-6.144-45.090133c-18.659556 2.548622-36.090311 5.461333-52.064711 8.726755l-8.556089 1.797689c-68.676267 14.904889-107.428978 34.929778-107.428978 68.653511 0 58.766222 151.290311 90.225778 350.549333 90.840178L512 876.088889c202.24 0 356.602311-31.482311 356.602311-90.851556 0-35.111822-41.984-55.352889-115.985067-70.4512a810.7008 810.7008 0 0 0-52.053333-8.726755 22.755556 22.755556 0 1 0-6.155378 45.090133c17.692444 2.423467 34.144711 5.176889 49.106489 8.226133 28.740267 5.870933 51.4048 12.708978 66.218667 19.854223 3.504356 1.695289 6.439822 3.345067 8.772267 4.881066l1.627022 1.1264a68.653511 68.653511 0 0 1-10.410667 6.007467z" fill="#74c9f5" p-id="12924"></path></svg>